<?xml version="1.0" encoding="UTF-8"?>
<svg xmlns="http://www.w3.org/2000/svg" xmlns:xlink="http://www.w3.org/1999/xlink" width="1280" height="720" viewBox="0 0 1280 720">
<defs>
<g>
<g id="glyph-0-0">
<path d="M 0.617188 -4.148438 L 1.128906 -4.148438 C 1.417969 -2.824219 1.886719 -1.859375 2.53125 -1.257812 C 3.175781 -0.65625 3.914062 -0.355469 4.75 -0.355469 C 5.558594 -0.355469 6.132812 -0.5625 6.476562 -0.976562 C 6.816406 -1.390625 6.988281 -1.824219 6.988281 -2.28125 C 6.988281 -2.816406 6.808594 -3.25 6.449219 -3.585938 C 6.210938 -3.804688 5.734375 -4.089844 5.015625 -4.445312 L 3.863281 -5.015625 C 2.71875 -5.582031 1.910156 -6.144531 1.441406 -6.703125 C 0.972656 -7.257812 0.738281 -7.941406 0.738281 -8.757812 C 0.738281 -9.625 1.050781 -10.4375 1.671875 -11.1875 C 2.292969 -11.941406 3.246094 -12.316406 4.53125 -12.316406 C 5.183594 -12.316406 5.816406 -12.21875 6.429688 -12.023438 C 7.039062 -11.824219 7.386719 -11.726562 7.472656 -11.726562 C 7.671875 -11.726562 7.804688 -11.785156 7.882812 -11.894531 C 7.957031 -12.007812 8.019531 -12.160156 8.0625 -12.34375 L 8.59375 -12.34375 L 8.59375 -8.472656 L 8.097656 -8.472656 C 7.859375 -9.371094 7.445312 -10.140625 6.84375 -10.789062 C 6.246094 -11.4375 5.519531 -11.761719 4.660156 -11.761719 C 4.058594 -11.761719 3.582031 -11.597656 3.234375 -11.269531 C 2.882812 -10.945312 2.707031 -10.546875 2.707031 -10.078125 C 2.707031 -9.515625 2.875 -9.097656 3.203125 -8.820312 C 3.527344 -8.535156 4.246094 -8.117188 5.363281 -7.570312 L 6.703125 -6.910156 C 7.296875 -6.613281 7.773438 -6.289062 8.125 -5.929688 C 8.785156 -5.257812 9.113281 -4.441406 9.113281 -3.480469 C 9.113281 -2.582031 8.761719 -1.738281 8.050781 -0.941406 C 7.34375 -0.144531 6.207031 0.25 4.644531 0.25 C 4.285156 0.25 3.921875 0.21875 3.554688 0.152344 C 3.1875 0.0859375 2.824219 -0.015625 2.464844 -0.15625 L 2.117188 -0.285156 C 2.035156 -0.308594 1.957031 -0.328125 1.882812 -0.34375 C 1.808594 -0.359375 1.746094 -0.363281 1.691406 -0.363281 C 1.507812 -0.363281 1.378906 -0.3125 1.3125 -0.203125 C 1.242188 -0.0976562 1.179688 0.0546875 1.128906 0.25 L 0.617188 0.25 Z "/>
</g>
<g id="glyph-0-1">
<path d="M 0.285156 -0.453125 C 0.789062 -0.464844 1.152344 -0.523438 1.371094 -0.632812 C 1.730469 -0.820312 1.910156 -1.175781 1.910156 -1.703125 L 1.910156 -10.304688 C 1.910156 -10.832031 1.738281 -11.183594 1.398438 -11.363281 C 1.191406 -11.472656 0.820312 -11.539062 0.285156 -11.5625 L 0.285156 -12.011719 L 6.5 -12.011719 L 6.5 -11.5625 C 5.945312 -11.539062 5.5625 -11.476562 5.355469 -11.371094 C 5.007812 -11.191406 4.835938 -10.835938 4.835938 -10.304688 L 4.835938 -1.703125 C 4.835938 -1.203125 4.972656 -0.871094 5.25 -0.703125 C 5.527344 -0.535156 5.945312 -0.453125 6.5 -0.453125 L 6.5 0 L 0.285156 0 Z "/>
</g>
<g id="glyph-0-2">
<path d="M 6.988281 -4.191406 L 5.285156 -8.308594 L 5.140625 -8.308594 L 3.53125 -4.191406 Z M 0.320312 -0.453125 C 0.75 -0.480469 1.09375 -0.675781 1.355469 -1.03125 C 1.523438 -1.257812 1.761719 -1.757812 2.074219 -2.527344 L 6.023438 -12.257812 L 6.519531 -12.257812 L 10.484375 -2.917969 C 10.929688 -1.871094 11.265625 -1.195312 11.484375 -0.890625 C 11.703125 -0.585938 12.015625 -0.441406 12.421875 -0.453125 L 12.421875 0 L 6.667969 0 L 6.667969 -0.453125 C 7.246094 -0.476562 7.625 -0.523438 7.808594 -0.597656 C 7.992188 -0.671875 8.082031 -0.863281 8.082031 -1.171875 C 8.082031 -1.3125 8.035156 -1.523438 7.941406 -1.804688 C 7.882812 -1.972656 7.804688 -2.175781 7.707031 -2.414062 L 7.257812 -3.488281 L 3.265625 -3.488281 C 3.003906 -2.78125 2.835938 -2.324219 2.761719 -2.109375 C 2.605469 -1.652344 2.527344 -1.320312 2.527344 -1.109375 C 2.527344 -0.855469 2.695312 -0.671875 3.039062 -0.554688 C 3.242188 -0.492188 3.542969 -0.457031 3.949219 -0.453125 L 3.949219 0 L 0.320312 0 Z "/>
</g>
<g id="glyph-0-3">
<path d="M 0.78125 -5.09375 L 5.09375 -5.09375 L 5.09375 -3.039062 L 0.78125 -3.039062 Z "/>
</g>
<g id="glyph-0-4">
<path d="M 0.320312 -0.453125 C 0.808594 -0.46875 1.15625 -0.53125 1.363281 -0.640625 C 1.714844 -0.828125 1.890625 -1.179688 1.890625 -1.703125 L 1.890625 -10.304688 C 1.890625 -10.824219 1.722656 -11.175781 1.390625 -11.355469 C 1.191406 -11.464844 0.835938 -11.535156 0.320312 -11.5625 L 0.320312 -12.011719 L 6.535156 -12.011719 L 6.535156 -11.5625 C 5.8125 -11.539062 5.332031 -11.4375 5.089844 -11.257812 C 4.851562 -11.078125 4.730469 -10.636719 4.730469 -9.929688 L 4.730469 -1.535156 C 4.730469 -1.140625 4.832031 -0.882812 5.039062 -0.753906 C 5.246094 -0.628906 5.644531 -0.5625 6.242188 -0.5625 C 7.3125 -0.5625 8.210938 -0.800781 8.9375 -1.273438 C 9.664062 -1.742188 10.289062 -2.660156 10.816406 -4.027344 L 11.335938 -4.027344 L 10.617188 0 L 0.320312 0 Z "/>
</g>
<g id="glyph-0-5">
<path d="M 0.398438 -4.078125 C 0.398438 -5.445312 0.761719 -6.507812 1.488281 -7.261719 C 2.214844 -8.015625 3.089844 -8.394531 4.113281 -8.394531 C 4.699219 -8.394531 5.25 -8.242188 5.765625 -7.933594 C 6.28125 -7.628906 6.675781 -7.203125 6.953125 -6.65625 C 7.160156 -6.246094 7.304688 -5.714844 7.386719 -5.0625 C 7.425781 -4.753906 7.449219 -4.519531 7.449219 -4.359375 L 2.917969 -4.359375 C 2.957031 -3.644531 3.074219 -3.03125 3.265625 -2.507812 C 3.613281 -1.53125 4.222656 -1.042969 5.09375 -1.042969 C 5.511719 -1.042969 5.90625 -1.171875 6.277344 -1.433594 C 6.503906 -1.589844 6.78125 -1.851562 7.117188 -2.222656 L 7.527344 -1.96875 C 6.976562 -1.066406 6.339844 -0.441406 5.617188 -0.0859375 C 5.148438 0.140625 4.609375 0.25 4 0.25 C 3.128906 0.25 2.308594 -0.09375 1.546875 -0.78125 C 0.78125 -1.46875 0.398438 -2.570312 0.398438 -4.078125 Z M 5.261719 -5.015625 C 5.25 -6.0625 5.167969 -6.796875 5.015625 -7.214844 C 4.867188 -7.628906 4.566406 -7.839844 4.113281 -7.839844 C 3.652344 -7.839844 3.335938 -7.597656 3.164062 -7.117188 C 2.992188 -6.636719 2.894531 -5.9375 2.875 -5.015625 Z "/>
</g>
<g id="glyph-0-6">
<path d="M 4.730469 -8.1875 L 4.730469 -7.75 C 4.417969 -7.738281 4.183594 -7.707031 4.023438 -7.648438 C 3.863281 -7.589844 3.785156 -7.464844 3.785156 -7.273438 C 3.785156 -7.226562 3.804688 -7.140625 3.851562 -7.019531 C 3.894531 -6.894531 3.925781 -6.800781 3.949219 -6.746094 L 5.285156 -3.332031 L 5.425781 -3.332031 L 6.625 -6.371094 C 6.679688 -6.515625 6.730469 -6.664062 6.765625 -6.8125 C 6.804688 -6.964844 6.824219 -7.082031 6.824219 -7.171875 C 6.824219 -7.417969 6.738281 -7.578125 6.570312 -7.644531 C 6.402344 -7.710938 6.160156 -7.746094 5.84375 -7.75 L 5.84375 -8.1875 L 8.53125 -8.1875 L 8.53125 -7.75 C 8.296875 -7.734375 8.101562 -7.65625 7.953125 -7.523438 C 7.800781 -7.386719 7.652344 -7.140625 7.507812 -6.789062 L 4.644531 0.25 L 4.191406 0.25 L 2.058594 -5.015625 C 1.90625 -5.386719 1.761719 -5.734375 1.617188 -6.058594 C 1.476562 -6.382812 1.328125 -6.699219 1.171875 -7.003906 C 1.011719 -7.316406 0.882812 -7.515625 0.789062 -7.59375 C 0.695312 -7.675781 0.53125 -7.726562 0.285156 -7.75 L 0.285156 -8.1875 Z "/>
</g>
<g id="glyph-0-7">
<path d="M 0.320312 -0.425781 C 0.664062 -0.464844 0.898438 -0.546875 1.03125 -0.667969 C 1.164062 -0.789062 1.238281 -1.023438 1.25 -1.371094 L 1.265625 -1.890625 L 1.265625 -6.726562 C 1.265625 -7.097656 1.203125 -7.347656 1.078125 -7.484375 C 0.949219 -7.617188 0.699219 -7.707031 0.320312 -7.75 L 0.320312 -8.1875 L 3.699219 -8.1875 L 3.699219 -6.789062 C 4.074219 -7.28125 4.445312 -7.671875 4.816406 -7.960938 C 5.1875 -8.25 5.617188 -8.394531 6.101562 -8.394531 C 6.464844 -8.394531 6.796875 -8.277344 7.085938 -8.042969 C 7.378906 -7.808594 7.527344 -7.464844 7.527344 -7.015625 C 7.527344 -6.667969 7.421875 -6.378906 7.21875 -6.15625 C 7.011719 -5.929688 6.746094 -5.816406 6.414062 -5.816406 C 6.039062 -5.816406 5.714844 -5.992188 5.4375 -6.34375 C 5.164062 -6.699219 4.972656 -6.875 4.859375 -6.875 C 4.625 -6.875 4.386719 -6.730469 4.144531 -6.4375 C 3.90625 -6.144531 3.785156 -5.726562 3.785156 -5.183594 L 3.785156 -1.824219 C 3.785156 -1.234375 3.871094 -0.863281 4.039062 -0.714844 C 4.210938 -0.566406 4.550781 -0.472656 5.0625 -0.425781 L 5.0625 0 L 0.320312 0 Z "/>
</g>
</g>
</defs>
<g fill="rgb(100%, 100%, 100%)" fill-opacity="1">
<use xlink:href="#glyph-0-0" x="30" y="33.333008"/>
<use xlink:href="#glyph-0-1" x="40" y="33.333008"/>
<use xlink:href="#glyph-0-2" x="47" y="33.333008"/>
<use xlink:href="#glyph-0-3" x="60" y="33.333008"/>
<use xlink:href="#glyph-0-4" x="66" y="33.333008"/>
<use xlink:href="#glyph-0-5" x="78" y="33.333008"/>
<use xlink:href="#glyph-0-6" x="86" y="33.333008"/>
<use xlink:href="#glyph-0-5" x="95" y="33.333008"/>
<use xlink:href="#glyph-0-7" x="103" y="33.333008"/>
</g>
</svg>
