<?xml version="1.0" encoding="UTF-8"?>
<svg xmlns="http://www.w3.org/2000/svg" xmlns:xlink="http://www.w3.org/1999/xlink" width="1280" height="720" viewBox="0 0 1280 720">
<defs>
<g>
<g id="glyph-0-0">
<path d="M 0.0976562 -0.109375 C 0.335938 -0.136719 0.484375 -0.179688 0.546875 -0.242188 C 0.605469 -0.304688 0.636719 -0.46875 0.636719 -0.734375 L 0.636719 -3.378906 C 0.636719 -3.597656 0.601562 -3.742188 0.535156 -3.808594 C 0.46875 -3.875 0.324219 -3.914062 0.0976562 -3.929688 L 0.0976562 -4.042969 L 1.796875 -4.042969 L 1.796875 -3.929688 C 1.570312 -3.914062 1.425781 -3.871094 1.359375 -3.808594 C 1.289062 -3.742188 1.257812 -3.597656 1.257812 -3.378906 L 1.257812 -2.191406 L 3.109375 -2.191406 L 3.109375 -3.378906 C 3.109375 -3.597656 3.074219 -3.742188 3.011719 -3.808594 C 2.945312 -3.875 2.796875 -3.914062 2.570312 -3.929688 L 2.570312 -4.042969 L 4.269531 -4.042969 L 4.269531 -3.929688 C 4.042969 -3.914062 3.898438 -3.871094 3.832031 -3.808594 C 3.765625 -3.742188 3.734375 -3.597656 3.734375 -3.378906 L 3.734375 -0.664062 C 3.734375 -0.441406 3.765625 -0.296875 3.832031 -0.234375 C 3.898438 -0.171875 4.042969 -0.128906 4.269531 -0.109375 L 4.269531 0 L 2.570312 0 L 2.570312 -0.109375 C 2.8125 -0.132812 2.960938 -0.179688 3.019531 -0.242188 C 3.078125 -0.304688 3.109375 -0.46875 3.109375 -0.734375 L 3.109375 -1.921875 L 1.257812 -1.921875 L 1.257812 -0.664062 C 1.257812 -0.441406 1.289062 -0.296875 1.359375 -0.234375 C 1.425781 -0.167969 1.570312 -0.128906 1.796875 -0.109375 L 1.796875 0 L 0.0976562 0 Z "/>
</g>
<g id="glyph-0-1">
<path d="M 0.238281 -1.570312 L 1.738281 -1.570312 L 1.738281 -1.1875 L 0.238281 -1.1875 Z "/>
</g>
<g id="glyph-0-2">
<path d="M 0.0546875 -2.683594 L 0.0546875 -3.140625 L 3.378906 -1.625 L 3.378906 -1.460938 L 0.0546875 0.0507812 L 0.0546875 -0.402344 L 2.582031 -1.546875 Z "/>
</g>
<g id="glyph-0-3">
<path d="M 1.523438 -4.042969 L 1.523438 -3.929688 C 1.402344 -3.925781 1.316406 -3.914062 1.265625 -3.898438 C 1.171875 -3.863281 1.128906 -3.800781 1.128906 -3.710938 C 1.128906 -3.671875 1.132812 -3.632812 1.144531 -3.59375 C 1.15625 -3.558594 1.171875 -3.507812 1.195312 -3.449219 L 2.078125 -1.152344 L 2.726562 -2.875 L 2.4375 -3.613281 C 2.382812 -3.75 2.304688 -3.839844 2.195312 -3.882812 C 2.132812 -3.910156 2.035156 -3.925781 1.90625 -3.929688 L 1.90625 -4.042969 L 3.542969 -4.042969 L 3.542969 -3.929688 C 3.390625 -3.925781 3.28125 -3.917969 3.226562 -3.898438 C 3.132812 -3.863281 3.089844 -3.792969 3.089844 -3.6875 C 3.089844 -3.652344 3.09375 -3.621094 3.101562 -3.59375 C 3.109375 -3.566406 3.128906 -3.511719 3.160156 -3.429688 L 4.042969 -1.136719 L 4.804688 -3.210938 C 4.851562 -3.328125 4.878906 -3.433594 4.894531 -3.523438 C 4.90625 -3.574219 4.910156 -3.617188 4.910156 -3.648438 C 4.910156 -3.761719 4.855469 -3.839844 4.75 -3.882812 C 4.691406 -3.910156 4.601562 -3.925781 4.480469 -3.929688 L 4.480469 -4.042969 L 5.691406 -4.042969 L 5.691406 -3.929688 C 5.582031 -3.914062 5.5 -3.886719 5.441406 -3.855469 C 5.339844 -3.796875 5.261719 -3.699219 5.210938 -3.554688 L 4.558594 -1.738281 L 4.304688 -1.039062 L 3.9375 0.0703125 L 3.847656 0.0703125 L 3.597656 -0.636719 L 2.871094 -2.515625 L 1.929688 0.0703125 L 1.835938 0.0703125 L 1.398438 -1.199219 L 0.875 -2.628906 C 0.65625 -3.21875 0.507812 -3.578125 0.421875 -3.714844 C 0.335938 -3.847656 0.207031 -3.917969 0.0273438 -3.929688 L 0.0273438 -4.042969 Z "/>
</g>
</g>
</defs>
<g fill="rgb(100%, 100%, 100%)" fill-opacity="1">
<use xlink:href="#glyph-0-0" x="30" y="24.583008"/>
<use xlink:href="#glyph-0-1" x="34" y="24.583008"/>
<use xlink:href="#glyph-0-2" x="36" y="24.583008"/>
<use xlink:href="#glyph-0-3" x="39" y="24.583008"/>
</g>
</svg>
